Coordinates
version=1
nRows=18
nColumns=38
inDegrees=yes

Units are S.I. units (second, meters, Newtons, ...)
Angles are in degrees.

endheader
time	pelvis_tilt	pelvis_list	pelvis_rotation	pelvis_tx	pelvis_ty	pelvis_tz	hip_flexion_r	hip_adduction_r	hip_rotation_r	knee_angle_r	ankle_angle_r	subtalar_angle_r	mtp_angle_r	hip_flexion_l	hip_adduction_l	hip_rotation_l	knee_angle_l	ankle_angle_l	subtalar_angle_l	mtp_angle_l	lumbar_extension	lumbar_bending	lumbar_rotation	arm_flex_r	arm_add_r	arm_rot_r	elbow_flex_r	pro_sup_r	wrist_flex_r	wrist_dev_r	arm_flex_l	arm_add_l	arm_rot_l	elbow_flex_l	pro_sup_l	wrist_flex_l	wrist_dev_l
      1.54000000	     -1.62088632	      4.08706646	     -1.85143737	      0.24253673	      0.93062131	     -0.30565019	     -1.70675767	     -3.55944080	     -3.02445310	    -43.40798682	     -5.90258335	     -6.57812739	      0.00000000	     21.01800950	      6.33632036	     -2.31596817	    -20.24695374	     -0.74303629	    -11.31285274	      0.00000000	     -5.17331290	     -5.24055266	      2.66301344	      9.75402450	    -15.66429502	     26.28252699	     79.83446203	     41.16516224	      0.00000000	      0.00000000	    -15.99586599	     -7.27676677	     39.44072137	     21.95193824	     41.16516224	      0.00000000	      0.00000000
      1.55000000	     -1.70534625	      4.42777635	     -1.94032440	      0.25533205	      0.93172690	     -0.30704893	     -0.08606931	     -4.35173616	     -3.58519742	    -46.21462035	    -10.53988551	     -7.51420112	      0.00000000	     20.31422668	      6.84731341	     -2.23659110	    -20.36943458	     -0.03558600	    -11.50807139	      0.00000000	     -5.10659403	     -5.60356502	      2.44875011	      9.12352010	    -15.50597859	     26.62857161	     79.53080032	     41.21438321	      0.00000000	      0.00000000	    -15.73888678	     -7.26014885	     39.48632770	     22.06223318	     41.21438321	      0.00000000	      0.00000000
      1.56000000	     -1.90871053	      4.80044528	     -2.17459229	      0.26756175	      0.93262462	     -0.30815701	      1.85857151	     -5.07109759	     -3.75381522	    -49.10340369	    -15.31308068	     -8.94577754	      0.00000000	     19.51901439	      7.28042993	     -2.43126001	    -20.02353874	      0.68895774	    -11.33510197	      0.00000000	     -4.95724627	     -5.97044647	      2.29678413	      8.54607315	    -15.26176942	     26.94486689	     79.09434911	     41.25809532	      0.00000000	      0.00000000	    -15.39793259	     -7.25788748	     39.53568078	     22.22957254	     41.25809532	      0.00000000	      0.00000000
      1.57000000	     -1.38891796	      4.24434374	     -1.37040420	      0.28183423	      0.93532845	     -0.31103170	      2.23590473	     -4.77697249	     -4.99466208	    -50.85628875	    -20.22448448	    -10.93124199	      0.00000000	     17.70598593	      7.14464965	     -1.53005374	    -19.64510525	      1.85513690	    -10.84421711	      0.00000000	     -5.50691099	     -5.19447313	      1.06627044	      7.93106160	    -15.07953155	     27.24824735	     78.32098571	     41.32120779	      0.00000000	      0.00000000	    -15.18696071	     -7.10956030	     39.65436169	     22.45370867	     41.32120779	      0.00000000	      0.00000000
      1.58000000	     -1.63235151	      4.30901247	     -1.66071140	      0.29382359	      0.93615905	     -0.31164989	      4.45515481	     -5.20737280	     -4.90057012	    -53.79781645	    -24.20248428	    -11.57365614	      0.00000000	     16.96162914	      7.17874879	     -1.86498222	    -19.31362356	      2.65599991	    -10.35964735	      0.00000000	     -5.32285165	     -5.23729892	      0.79846232	      7.87245477	    -14.68979771	     28.10424909	     76.44995115	     41.54067189	      0.00000000	      0.00000000	    -14.83254457	     -7.20953954	     39.98695486	     22.91263037	     41.54067189	      0.00000000	      0.00000000
      1.59000000	     -1.78523543	      4.28758847	     -1.96479017	      0.30582667	      0.93694787	     -0.31217188	      6.53376995	     -5.67593171	     -5.09905196	    -56.51465040	    -26.71927419	    -11.83266499	      0.00000000	     16.10035183	      7.19650675	     -2.01933431	    -18.94276728	      3.43882457	    -10.38517303	      0.00000000	     -5.24831842	     -5.17611673	      0.56990064	      7.20042412	    -14.48947984	     28.43483520	     76.00933779	     41.58451752	      0.00000000	      0.00000000	    -14.33801429	     -7.22954220	     40.03211705	     23.08934875	     41.58451752	      0.00000000	      0.00000000
      1.60000000	     -1.83833270	      4.24160057	     -2.36526657	      0.31767776	      0.93774561	     -0.31239962	      8.43789416	     -6.07924121	     -5.20622712	    -58.93311449	    -27.60979420	    -11.82738598	      0.00000000	     15.16803277	      7.18495432	     -2.07686925	    -18.64407863	      4.29666549	    -10.45624617	      0.00000000	     -5.30315151	     -5.05836382	      0.37729677	      6.71343749	    -14.28217310	     28.65035751	     75.62320864	     41.59990382	      0.00000000	      0.00000000	    -13.77009178	     -7.23355249	     40.04040905	     23.26135040	     41.59990382	      0.00000000	      0.00000000
      1.61000000	     -2.01907906	      4.17676884	     -2.73687685	      0.32940746	      0.93855933	     -0.31249608	     10.44368007	     -6.18086609	     -5.04707931	    -61.04797206	    -27.44844266	    -12.63851459	      0.00000000	     14.42754721	      7.10210553	     -2.41240993	    -18.38970041	      4.79536321	    -10.35627950	      0.00000000	     -5.20326747	     -4.99040211	      0.30679252	      6.12020853	    -14.02868812	     28.99053581	     74.23821457	     41.64462506	      0.00000000	      0.00000000	    -12.99873340	     -7.40627631	     40.16114439	     23.64699330	     41.64462506	      0.00000000	      0.00000000
      1.62000000	     -2.05979035	      3.85229841	     -3.02270184	      0.34122396	      0.93970826	     -0.31255703	     12.16741971	     -5.67356362	     -4.63678825	    -62.68540520	    -26.22317082	    -13.34592363	      0.00000000	     13.44741909	      6.76839834	     -2.55863251	    -18.06367062	      5.62217879	     -9.95363020	      0.00000000	     -5.25278271	     -4.58463270	     -0.06345259	      6.48880321	    -13.32944259	     29.87373939	     70.85342692	     41.78796740	      0.00000000	      0.00000000	    -12.45326598	     -7.69283332	     40.68239025	     24.41716316	     41.78796740	      0.00000000	      0.00000000
      1.63000000	     -2.26782070	      3.35896059	     -3.12430771	      0.35235868	      0.94061833	     -0.31264365	     13.99901512	     -4.65754789	     -4.08641258	    -63.94365719	    -24.38358001	    -14.09607436	      0.00000000	     12.71035183	      6.30713275	     -2.56814629	    -17.74157305	      6.18499011	    -10.00858404	      0.00000000	     -5.25728214	     -3.99714229	     -0.37465436	      5.89539625	    -13.26816115	     30.29672910	     70.11169896	     41.82173686	      0.00000000	      0.00000000	    -11.51121945	     -7.84342919	     40.70965334	     24.66666425	     41.82173686	      0.00000000	      0.00000000
      1.64000000	     -2.30885928	      2.91390426	     -3.25436410	      0.36420452	      0.94191898	     -0.31288315	     15.62594967	     -3.90433261	     -3.69299368	    -64.95761721	    -21.03291815	    -13.61392613	      0.00000000	     11.56844845	      5.89374351	     -2.67939020	    -17.08250397	      6.74500701	     -9.74489987	      0.00000000	     -5.33157339	     -3.43897446	     -0.69276476	      5.60322460	    -13.05009663	     30.91058544	     68.11982479	     41.89481869	      0.00000000	      0.00000000	    -10.61519384	     -8.03742419	     40.91750592	     25.05794925	     41.89481869	      0.00000000	      0.00000000
      1.65000000	     -2.55951947	      2.59576178	     -3.52272905	      0.37559292	      0.94270893	     -0.31291168	     17.53295133	     -3.14434716	     -3.14966128	    -65.73947456	    -18.45367887	    -13.91451057	      0.00000000	     10.68537528	      5.57092677	     -2.98350240	    -16.39556117	      7.20786265	     -9.52442735	      0.00000000	     -5.18802084	     -3.01860797	     -0.91227089	      5.91017148	    -12.63905434	     32.53873366	     64.32726151	     42.10059938	      0.00000000	      0.00000000	     -9.68319812	     -8.44572369	     41.52117130	     25.72624475	     42.10059938	      0.00000000	      0.00000000
      1.66000000	     -2.67306847	      2.15439461	     -3.60201940	      0.38722076	      0.94367160	     -0.31332466	     19.11963697	     -2.46725021	     -3.03963285	    -66.16268205	    -15.52700422	    -13.62863067	      0.00000000	      9.65463128	      5.19460915	     -3.01467412	    -15.75229019	      7.60065621	     -9.47188615	      0.00000000	     -5.21907484	     -2.42923473	     -1.14329661	      5.14513046	    -12.69416662	     32.91213666	     63.33741942	     42.14490439	      0.00000000	      0.00000000	     -8.66308470	     -8.61517748	     41.59373717	     25.94927702	     42.14490439	      0.00000000	      0.00000000
      1.67000000	     -2.75608882	      1.73356456	     -3.58620527	      0.39888592	      0.94458356	     -0.31385792	     20.66105262	     -1.98681914	     -3.22344379	    -66.28238945	    -13.22097858	    -13.23449683	      0.00000000	      8.62313377	      4.85116143	     -2.99033852	    -15.15855533	      7.99402778	     -9.37315108	      0.00000000	     -5.25430031	     -1.86856427	     -1.54714130	      5.06171562	    -12.25062061	     33.79487915	     59.85668358	     42.31108658	      0.00000000	      0.00000000	     -7.64998725	     -8.96113590	     42.20084468	     26.43505488	     42.31108658	      0.00000000	      0.00000000
      1.68000000	     -2.81165623	      1.36558070	     -3.54260197	      0.41028336	      0.94536609	     -0.31448321	     22.09287074	     -1.57952216	     -3.44424806	    -66.14196845	    -10.81441013	    -12.64853431	      0.00000000	      7.66025971	      4.57270724	     -2.95371380	    -14.68861646	      8.29547809	     -9.33825242	      0.00000000	     -5.36364135	     -1.35884128	     -1.90795942	      4.90477931	    -12.17483004	     35.32668234	     57.01524270	     42.57204053	      0.00000000	      0.00000000	     -6.48504684	     -9.28552832	     42.88978896	     26.75338509	     42.57204053	      0.00000000	      0.00000000
      1.69000000	     -2.82057323	      0.94224983	     -3.40432970	      0.42181385	      0.94601687	     -0.31518429	     23.34141500	     -1.09506314	     -3.73383763	    -65.66636306	     -8.53715603	    -12.20730009	      0.00000000	      6.66221769	      4.24722979	     -2.76363127	    -14.28734822	      8.63603239	     -9.35391130	      0.00000000	     -5.51220696	     -0.79032559	     -2.29396749	      4.31884520	    -12.03680263	     35.75219904	     54.82460794	     42.71276885	      0.00000000	      0.00000000	     -5.29085516	     -9.58218537	     43.14205578	     27.11882574	     42.71276885	      0.00000000	      0.00000000
      1.70000000	     -2.81294295	      0.42689967	     -3.19260138	      0.43336084	      0.94656088	     -0.31579753	     24.46492667	     -0.28311699	     -3.79948801	    -64.81499061	     -6.46919580	    -12.32188642	      0.00000000	      5.72288323	      3.80515099	     -2.55433466	    -14.04214278	      9.08622530	     -9.28353566	      0.00000000	     -5.67523782	     -0.12918621	     -2.61899902	      3.29345868	    -12.20968104	     35.91260157	     53.92319260	     42.73377898	      0.00000000	      0.00000000	     -3.96801031	     -9.80923584	     43.05368680	     27.35709572	     42.73377898	      0.00000000	      0.00000000
      1.71000000	     -2.78753990	      0.03462105	     -2.92019174	      0.44490826	      0.94690981	     -0.31647533	     25.49326811	      0.20810058	     -4.09029337	    -63.72933601	     -4.48353984	    -11.66262843	      0.00000000	      4.68217928	      3.49695732	     -2.25760835	    -13.62784639	      9.27076462	     -9.42216291	      0.00000000	     -5.82747170	      0.38797666	     -3.10952760	      2.98701099	    -11.59760654	     36.08106263	     50.19742522	     42.83353881	      0.00000000	      0.00000000	     -2.79689061	    -10.25378341	     43.22705077	     27.99418320	     42.83353881	      0.00000000	      0.00000000
